<svg width="24" height="24" viewBox="0 0 24 24" fill="none" xmlns="http://www.w3.org/2000/svg">
<path d="M23.5307 2.95745V20.8759C23.5307 22.4291 22.2753 23.6846 20.7221 23.6846H15.8542C22.5383 19.288 22.3994 15.7302 22.3994 15.7302C22.836 9.95911 15.4473 8.31166 14.9908 8.22234C21.2729 11.681 19.3774 15.1942 19.3774 15.1942C18.2907 19.1441 11.5619 22.5184 8.97662 23.6895H3.72661C16.3951 18.5487 15.7897 13.3731 15.7897 13.3731C15.9733 9.34876 9.60185 7.8601 9.20984 7.77575C13.5319 10.0435 12.2666 13.0555 12.2666 13.0555C11.294 16.6482 2.43644 20.3748 0.0347354 21.3325C0.0049622 21.1836 0 21.0347 0 20.8759V18.3651C8.81783 14.693 9.56216 11.2542 9.56216 11.2542C10.2221 7.38869 3.27009 7.1257 3.27009 7.1257C11.3089 10.1378 2.69447 14.3953 0 15.5763V2.95745C0 1.40428 1.25544 0.153809 2.8086 0.153809H20.7271C22.2803 0.153809 23.5357 1.40924 23.5357 2.96241L23.5307 2.95745Z" fill="#2B6CE8"/>
</svg>
